<svg xmlns="http://www.w3.org/2000/svg" style="display: none">
<symbol id="icon-file" viewBox="0 0 32 32">
<path d="M7.49493 11.5342C7.64473 11.543 7.7774 11.6139 7.87286 11.708C7.96827 11.8022 8.03968 11.9324 8.0545 12.0791C8.06974 12.2312 8.02141 12.3874 7.90021 12.5156L7.90118 12.5166L7.87579 12.543C5.61348 14.9879 3.30556 17.4887 2.32892 20.666L2.32794 20.667C1.43122 23.5365 1.87535 27.0234 4.41486 28.8438C5.69612 29.6187 7.16541 30.0283 8.6629 30.0283C10.1628 30.0282 11.6341 29.6173 12.9168 28.8398C15.6467 27.1515 18.013 24.9359 19.8777 22.3232L19.8914 22.3057C20.0075 22.1731 20.1592 22.1084 20.3162 22.1162C20.4657 22.1237 20.597 22.1958 20.6912 22.29C20.8772 22.4761 20.974 22.8162 20.7449 23.1025L20.744 23.1016C18.8231 25.7466 16.4204 28.0061 13.6609 29.7588L13.6551 29.7627C11.4052 31.0853 8.72915 31.4824 6.1922 30.8701L6.18634 30.8682C5.17997 30.5994 4.24524 30.1174 3.44415 29.457L3.10919 29.1631C2.23883 28.3509 1.58101 27.3371 1.19513 26.2109V26.21C0.206273 23.3568 0.815489 20.6487 2.0965 18.1953C3.3753 15.7462 5.33434 13.5296 7.07697 11.6465C7.12462 11.5952 7.19184 11.5715 7.25861 11.5762C7.33399 11.5436 7.41407 11.5295 7.49493 11.5342ZM21.1346 9.94629C21.2841 9.95579 21.414 10.0297 21.5067 10.125C21.6891 10.3126 21.7848 10.6575 21.5399 10.9375L21.5389 10.9385C18.3697 14.5333 14.8831 17.8359 11.1219 20.8057C11.0974 20.8249 11.0689 20.836 11.0399 20.8438C10.7728 20.9977 10.477 20.9055 10.3084 20.7393C10.2139 20.646 10.1395 20.5139 10.1365 20.3613C10.1335 20.2006 10.2101 20.0526 10.3494 19.9443L11.0477 19.3867C14.5216 16.5794 17.7532 13.4838 20.7078 10.1328C20.8247 9.99967 20.9771 9.93629 21.1346 9.94629ZM17.9744 1.86621C20.1248 0.912973 22.943 0.563266 25.4305 1.10449C27.9225 1.64678 30.1142 3.09399 30.9324 5.75977L31.0565 6.20508C31.6081 8.41904 31.1541 10.4471 30.2283 12.3242C29.4907 13.8199 28.4491 15.2286 27.3719 16.5674L26.2928 17.8838C25.5957 18.726 24.9212 19.5407 24.3348 20.3398L24.3328 20.3428C24.1141 20.6305 23.7582 20.6229 23.533 20.4961C23.418 20.4312 23.3122 20.3233 23.2693 20.1768C23.2243 20.0223 23.26 19.8606 23.366 19.7207H23.3651C24.023 18.8258 24.7516 17.9495 25.4744 17.0801L26.5115 15.8223C27.5291 14.564 28.4662 13.2996 29.1219 11.9678L29.242 11.7139C29.8222 10.4286 30.1224 8.91345 30.0184 7.48438C29.9143 6.0559 29.4081 4.72972 28.3934 3.79395L28.1844 3.6123C25.8362 1.69847 22.09 1.65366 19.3192 2.5957L19.3201 2.59668C16.5798 3.54187 14.3159 5.51918 13.0106 8.10742C12.9949 8.13834 12.9728 8.1657 12.9451 8.18652L12.9168 8.20605C12.8345 8.3316 12.72 8.41386 12.5848 8.44141C12.4374 8.47142 12.2915 8.43534 12.1766 8.36719C11.9515 8.2336 11.7738 7.92349 11.9461 7.59473L12.1961 7.12207C13.4094 4.94722 15.256 3.19229 17.4901 2.0918L17.9744 1.86621Z" fill="currentColor" stroke="currentColor" stroke-width="0.452541" stroke-linejoin="round"/>
</symbol>

<symbol id="icon-plus" viewBox="0 0 30 30">
<path d="M2.02991 1.07568L2.02014 1.30225L2.02991 1.07666L27.7526 2.17822C27.8243 2.14711 27.9023 2.13041 27.9821 2.13037C28.1353 2.13037 28.2829 2.19097 28.3912 2.29932L28.4625 2.38721C28.5249 2.48056 28.5595 2.59074 28.5602 2.70459L28.8971 27.5942L28.8922 27.6919C28.8897 27.7116 28.8841 27.7304 28.8795 27.7495C28.869 27.8719 28.8243 27.9991 28.733 28.1001C28.6333 28.2104 28.49 28.2778 28.3199 28.2778V28.2769L2.40588 28.9243L2.40491 28.9233C2.3808 28.924 2.35717 28.9215 2.33362 28.9194C2.19588 28.932 2.04831 28.9006 1.92834 28.812C1.79372 28.7124 1.70973 28.5543 1.70959 28.3608C1.70959 28.3543 1.71 28.3469 1.71057 28.3403C2.43007 20.1021 2.29728 11.8131 1.31506 3.60498L1.10706 1.96436V1.96338C1.08308 1.77159 1.15276 1.60671 1.28479 1.50049C1.35281 1.44586 1.43135 1.41235 1.51135 1.39404C1.53786 1.33626 1.5748 1.2817 1.62268 1.23389C1.723 1.13384 1.86081 1.07579 2.02014 1.07568H2.02991ZM2.30042 2.24268C3.3886 10.7039 3.5761 19.256 2.85999 27.7563L27.735 27.1362L27.4117 3.31982L2.30042 2.24268ZM17.0465 6.7124C17.1049 6.7124 17.1626 6.72087 17.2174 6.73779L17.2164 6.73877C17.4245 6.79922 17.6168 6.97564 17.6237 7.26025L17.9283 11.6167C19.3967 11.6846 20.8677 11.6784 22.3356 11.5972H22.3375L22.3395 11.5962L22.4586 11.5767C22.4989 11.5744 22.5396 11.5763 22.5797 11.5825L22.6959 11.6138C22.7336 11.6281 22.7702 11.6465 22.8043 11.6685L22.8981 11.7437C22.9266 11.772 22.9521 11.8035 22.9742 11.8374L23.0299 11.9448L23.0612 12.061V12.063L23.1305 12.5522C23.2795 13.6934 23.342 14.8445 23.317 15.9956V15.9985C23.3139 16.0954 23.2878 16.1838 23.2448 16.2622C23.1682 16.4472 22.9966 16.602 22.7428 16.6089L22.7438 16.6099L18.4137 16.9575L18.3268 21.3228V21.3374C18.3267 21.3401 18.3259 21.3427 18.3258 21.3452L18.3268 21.3462C18.3267 21.3484 18.3259 21.3509 18.3258 21.353C18.3261 21.3602 18.3268 21.3673 18.3268 21.3745C18.3268 21.5277 18.2661 21.6744 18.1578 21.7827C18.0495 21.891 17.9028 21.9526 17.7496 21.9526H17.7448C16.4186 21.925 15.1461 21.9654 13.7643 22.061L13.7633 22.0591C13.7028 22.0671 13.6403 22.068 13.5778 22.0562V22.0571L13.5748 22.0562H13.5719V22.0552C13.3009 22.0052 13.1702 21.7813 13.1442 21.5776L13.024 21.0259C12.7677 19.7969 12.5792 18.5547 12.4567 17.3052C11.006 17.1683 9.54696 17.1369 8.09143 17.2144L8.09241 17.2153L8.09045 17.2144V17.2153L8.08948 17.2144C7.9318 17.2234 7.79575 17.1715 7.69397 17.0767V17.0776L7.64221 17.0317C7.53859 16.928 7.47915 16.7891 7.47424 16.6431V16.644L7.12268 12.7222C7.12208 12.7155 7.1217 12.7084 7.1217 12.7017C7.1218 12.5486 7.18242 12.4017 7.29065 12.2935L7.36584 12.23C7.40768 12.2004 7.45375 12.1781 7.50159 12.1606C7.52507 12.1223 7.55328 12.0865 7.58557 12.0542C7.69391 11.9459 7.84155 11.8853 7.99475 11.8853H8.00159L9.15979 11.9077C10.2475 11.915 11.335 11.8806 12.4205 11.8091V7.56396C12.3756 7.48058 12.3503 7.387 12.3502 7.29053C12.3502 7.13732 12.4118 6.98968 12.5201 6.88135L12.608 6.80908C12.7022 6.74641 12.8136 6.7124 12.9283 6.7124H17.0465ZM13.5485 7.86768C13.4692 9.35579 13.4874 10.8452 13.5758 12.3364L13.5729 12.4438C13.5607 12.5476 13.5209 12.6409 13.4567 12.7173C13.3734 12.8162 13.2605 12.874 13.15 12.8989L13.149 12.897C13.0974 12.9137 13.0437 12.9248 12.9869 12.9263L12.9879 12.9272C11.4314 13.0483 9.86978 13.0879 8.3092 13.0483L8.57678 16.0386C10.0512 15.9852 11.5279 16.0387 12.9948 16.2017L12.9938 16.2026C13.1372 16.2118 13.2727 16.2717 13.3746 16.3735L13.4459 16.4595C13.5002 16.5395 13.5312 16.6324 13.5416 16.729C13.5603 16.7825 13.5709 16.8385 13.5729 16.8979H13.5748C13.6952 18.2343 13.8949 19.5626 14.1705 20.8755C15.1705 20.8104 16.1491 20.799 17.1715 20.7974V16.4263C17.1717 16.3396 17.221 16.2649 17.2926 16.2271C17.3159 16.1601 17.3506 16.0955 17.399 16.0386C17.4942 15.927 17.6334 15.856 17.8014 15.8511V15.8501L22.1647 15.4995C22.1667 14.5866 22.111 13.6749 21.9977 12.769C20.4609 12.8414 18.9214 12.8341 17.3854 12.7446H17.3844C17.116 12.7279 16.9382 12.559 16.8688 12.3589C16.83 12.2842 16.8081 12.2003 16.8063 12.1099V12.1108L16.5465 7.86768H13.5485Z" fill="currentColor" stroke="currentColor" stroke-width="0.452541" stroke-linejoin="round"/>
</symbol>

<symbol id="icon-send" viewBox="0 0 30 32">
<path d="M0.736572 1.24072C0.89035 1.06173 1.16614 0.953273 1.44751 1.10303L1.44849 1.10205C10.4371 5.86788 19.585 10.2738 28.8918 14.3188H28.8928C29.0621 14.3866 29.1671 14.5115 29.2053 14.6567C29.304 14.7359 29.3811 14.8461 29.4133 14.9731C29.458 15.1492 29.4092 15.3369 29.2561 15.4819C29.2634 15.5991 29.2412 15.72 29.1829 15.8247C29.0929 15.9859 28.9251 16.1022 28.7014 16.104L28.7024 16.105L28.5198 16.1089C21.2845 22.19 13.1965 27.1799 4.51099 30.9155L4.51001 30.9146C4.22484 31.053 3.95729 30.9026 3.81372 30.7251C3.63407 30.6433 3.49243 30.4683 3.49243 30.2153V30.2046L3.52173 29.5034C3.6444 25.9932 3.44301 22.4785 2.91919 19.0044L2.91821 18.9985C2.90736 18.9113 2.9154 18.8282 2.93872 18.7515C2.93158 18.6198 2.96038 18.4803 3.03442 18.3638C3.12282 18.2248 3.27332 18.12 3.47192 18.1128L19.6936 16.2046C15.029 16.183 10.3812 16.0478 5.75024 15.7925L3.21216 15.6401C3.13221 15.6351 3.05795 15.6153 2.99048 15.5835C2.88529 15.5618 2.77966 15.5147 2.69556 15.4312C2.59775 15.3339 2.53979 15.2006 2.53735 15.0454L2.53638 15.0464C2.32302 10.5755 1.67085 6.13575 0.589111 1.79248L0.590088 1.7915C0.55207 1.64346 0.572861 1.48627 0.649658 1.354L0.696533 1.28467C0.708876 1.2691 0.72375 1.25586 0.737549 1.2417L0.736572 1.24072ZM4.10669 19.1968C4.60307 22.6385 4.79146 26.1173 4.66919 29.5923C12.3513 26.2172 19.5539 21.8514 26.0969 16.6089L4.10669 19.1968ZM2.0022 2.69775C2.8944 6.58053 3.4513 10.5331 3.66528 14.5122C11.6214 15.0094 19.5774 15.1644 27.5334 14.978C18.8612 11.2041 10.3509 7.1107 2.0022 2.69775Z" fill="currentColor" stroke="currentColor" stroke-width="0.452541" stroke-linejoin="round"/>
</symbol>

<symbol id="icon-upload" viewBox="0 0 26 32">
<path d="M13.1072 0.742798C13.2671 0.583125 13.4813 0.546224 13.6638 0.588501C13.8362 0.628478 14.0099 0.748139 14.0847 0.931274C16.7179 3.28872 19.046 5.9664 21.0134 8.90295L21.0623 8.98303C21.147 9.15225 21.1246 9.32773 21.0427 9.46741C20.9955 9.652 20.8555 9.81048 20.6248 9.86096L20.6238 9.85999C18.988 10.2352 17.3234 10.4686 15.6482 10.5592C15.6759 13.9556 15.5765 17.3629 15.3484 20.7448C15.3424 20.838 15.3169 20.9233 15.2751 20.9987C15.2549 21.0585 15.226 21.1151 15.1873 21.1656L15.1375 21.2223C15.0292 21.3306 14.8824 21.3922 14.7292 21.3922H11.2205C11.1818 21.4003 11.1423 21.4059 11.1023 21.4059C10.9875 21.4058 10.8761 21.372 10.782 21.3092L10.6941 21.2369C10.6129 21.1558 10.5581 21.053 10.5359 20.942L10.5251 20.8287C10.525 20.8239 10.5251 20.819 10.5251 20.8141C10.5251 20.801 10.5252 20.788 10.5261 20.775L10.8591 10.3268L5.58472 10.1334V10.1324C5.36252 10.1252 5.19525 10.0094 5.10522 9.84827C5.02935 9.7122 5.01353 9.55008 5.04956 9.40295C5.04778 9.24898 5.11615 9.10096 5.25073 8.98792L5.25366 8.98596L5.79956 8.53577C8.51212 6.26182 10.9437 3.67115 13.0427 0.81897L13.1072 0.742798ZM13.5847 2.01331C11.6631 4.57365 9.48021 6.92579 7.07007 9.03088L12.488 9.23108H12.4871C12.6377 9.2329 12.7818 9.29338 12.8884 9.40002C12.9967 9.50827 13.0573 9.65507 13.0574 9.80823C13.0574 9.96148 12.9967 10.1091 12.8884 10.2174C12.7802 10.3255 12.6333 10.3863 12.4802 10.3864H12.4714L12.0134 10.3688L11.7 20.2369H14.2312C14.4877 16.8612 14.489 13.4597 14.489 10.0612C14.4891 9.90852 14.5497 9.76141 14.658 9.65295C14.7069 9.604 14.7652 9.56702 14.8269 9.5387C14.9177 9.46999 15.0293 9.42912 15.156 9.42737L15.7605 9.39807C17.0558 9.32062 18.3436 9.15145 19.616 8.89709C17.8692 6.38441 15.8465 4.07528 13.5847 2.01331ZM6.0144 15.8522L6.23999 15.8658C6.03972 19.2871 6.00546 22.7158 6.1355 26.1403H19.5564L19.4089 16.151V16.1471L19.4197 16.0367C19.4379 15.9434 19.4802 15.8569 19.5408 15.7828C19.6242 15.6102 19.794 15.4741 20.0349 15.4713L20.6033 15.4576C21.927 15.4345 23.2511 15.4811 24.5701 15.5983H24.571C24.6013 15.6005 24.6307 15.6073 24.6599 15.6139C24.8054 15.6192 24.9443 15.6776 25.0476 15.7809L25.1189 15.8698C25.1807 15.9624 25.2145 16.0713 25.2156 16.1842H25.2166C25.3385 20.9214 25.3012 25.6633 25.1042 30.4098L25.1033 30.4147C25.1 30.4681 25.088 30.5185 25.073 30.567C25.0769 30.6964 25.0455 30.8329 24.9656 30.9459C24.8702 31.0808 24.7158 31.1708 24.5212 31.1735L24.5222 31.1744C16.9047 31.5076 9.29175 31.5116 1.68335 31.1871C1.62204 31.2456 1.54917 31.2861 1.46851 31.3043C1.34436 31.3322 1.21841 31.3098 1.11206 31.2614C0.899703 31.1645 0.713631 30.9397 0.713623 30.6393C0.713623 30.6292 0.714228 30.619 0.715576 30.609C1.36401 25.8266 1.58217 20.9956 1.36792 16.1744C1.27767 16.0156 1.26898 15.8198 1.3269 15.6578C1.39855 15.4579 1.58106 15.2887 1.85425 15.2887H5.55054C5.57362 15.2882 5.59634 15.2906 5.6189 15.2926C5.75586 15.2806 5.90199 15.3121 6.02124 15.4C6.15632 15.4996 6.24095 15.6582 6.24097 15.8522V15.8658L6.0144 15.8522ZM20.7078 26.7321C20.693 26.8063 20.6638 26.8771 20.6218 26.9401L20.5496 27.028C20.5326 27.0449 20.5127 27.0583 20.4939 27.0729L20.4509 27.1256C20.3426 27.2339 20.195 27.2955 20.0417 27.2955H5.59253C5.47764 27.2955 5.36644 27.2607 5.27222 27.1979L5.18433 27.1256C5.11493 27.0562 5.06474 26.9711 5.03784 26.8785V26.8776C5.01525 26.817 5.00167 26.7524 5.00073 26.6842V26.6852C4.85427 23.2724 4.87316 19.8548 5.05347 16.444H2.53491C2.7218 20.9862 2.52469 25.5357 1.94702 30.0446C9.28953 30.3846 16.6277 30.3847 23.9617 30.0446C24.1389 25.6056 24.1763 21.1626 24.073 16.7155C22.9076 16.6265 21.7387 16.5932 20.5701 16.6149L20.7185 26.6158V26.6188L20.7078 26.7321Z" fill="currentColor" stroke="currentColor" stroke-width="0.452541" stroke-linejoin="round"/>
</symbol>
  <symbol id="icon-close" viewBox="0 0 34 32">
<path d="M20.8418 0.389404L20.8428 0.388428C23.7253 1.21914 26.3954 2.65529 28.6758 4.59741L29.127 4.99292L29.1348 4.99976H29.1338C31.5135 7.35045 32.9055 10.5213 33.0244 13.864L33.043 14.407C33.0918 16.9382 32.5929 19.4504 31.5791 21.7703L31.3535 22.2644C30.1111 24.8835 28.2387 27.1541 25.9043 28.8728L25.9004 28.8757C23.6151 30.4836 20.9327 31.4257 18.1514 31.6042L17.5938 31.6306C14.6177 31.7117 11.6838 30.9137 9.1582 29.3376L8.65039 29.0427C6.30327 27.6332 4.28102 25.7428 2.7168 23.4958L2.38867 23.0085L2.37402 22.9832C1.02435 20.1584 0.622451 16.9732 1.22852 13.9021C1.99411 8.08927 5.49259 2.20817 11.6729 1.05835L11.7227 1.05444C11.772 1.05628 11.8197 1.07505 11.8584 1.10718C11.8594 1.10801 11.8603 1.10926 11.8613 1.11011C12.1203 1.14199 12.2978 1.34517 12.3555 1.54956C12.3915 1.67757 12.3895 1.82835 12.3203 1.96265C12.2656 2.06875 12.1765 2.15018 12.0615 2.198L11.9385 2.23413C5.37902 3.45545 2.33921 10.2378 2.18555 16.4109V16.4246L1.95898 16.405L2.18457 16.4246C2.05717 17.8905 2.23614 19.3674 2.70996 20.7605L2.90137 21.2771C3.37726 22.4694 4.06583 23.567 4.93555 24.5154L5.29785 24.8923C7.12624 26.7514 9.27115 28.272 11.6338 29.3816L12.1143 29.574C14.5331 30.4907 17.1613 30.7246 19.71 30.2449L20.2168 30.1394C22.7397 29.5678 25.0601 28.3112 26.9199 26.5037L27.2783 26.1462C29.0378 24.3341 30.3552 22.137 31.124 19.7263L31.2705 19.2419C31.9625 16.8151 32.083 14.2587 31.6211 11.7732L31.499 11.2634C30.1698 6.24278 25.7815 3.29004 21.0078 1.6687L20.5293 1.5105H20.5283C20.1702 1.39498 20.0741 1.05087 20.1436 0.791748C20.1784 0.661885 20.2577 0.53553 20.3818 0.452881C20.511 0.36692 20.6723 0.340646 20.8418 0.389404ZM12.2559 8.72729C12.3223 8.72733 12.3868 8.74155 12.4482 8.76343H12.4492C12.508 8.777 12.5646 8.80015 12.6172 8.83179H12.6182C14.0558 9.69921 15.431 10.6663 16.7344 11.7244C18.1459 10.9648 19.4942 10.0935 20.7656 9.11694C20.7728 9.10868 20.7804 9.1004 20.7881 9.09253L20.793 9.08765L20.8818 9.01733C20.9767 8.95619 21.0877 8.92264 21.2021 8.92261C21.3508 8.92261 21.4934 8.97937 21.6025 9.07983H21.6035L24.2324 11.3572L24.2393 11.363H24.2383C24.2943 11.4156 24.3395 11.479 24.3701 11.5496L24.4053 11.6599C24.413 11.6973 24.417 11.7358 24.417 11.7742C24.417 11.8127 24.413 11.851 24.4053 11.8884L24.3701 11.9978C24.3516 12.0406 24.3261 12.0793 24.2979 12.116C24.2708 12.2017 24.2251 12.2811 24.1611 12.3464L24.1455 12.3611C22.914 13.3999 21.7373 14.5022 20.6201 15.6628C21.6941 16.8615 22.7222 18.1942 23.6875 19.448L23.7705 19.5564L23.7979 19.6013C23.8419 19.6989 23.8579 19.8061 23.8447 19.9109L23.8213 20.0154C23.8032 20.0718 23.7758 20.124 23.7422 20.1716C23.7307 20.2574 23.7026 20.3397 23.6553 20.4119L23.585 20.4998L23.5732 20.5115L20.958 22.8162L20.957 22.8152C20.85 22.9157 20.7096 22.9734 20.5625 22.9734C20.4165 22.9733 20.2766 22.9173 20.1699 22.8181V22.8191C20.1679 22.8174 20.1661 22.815 20.1641 22.8132C20.1622 22.8115 20.16 22.8101 20.1582 22.8083V22.8074C20.1328 22.7844 20.1095 22.7594 20.0889 22.7322L20.0273 22.6306C20.0164 22.6069 20.0084 22.5822 20.001 22.5574C19.2233 21.3852 18.3108 20.3092 17.2852 19.3474C15.9611 20.1924 14.7073 21.1429 13.5381 22.1921C13.5249 22.2238 13.5116 22.2552 13.4932 22.2839L13.416 22.3796C13.3576 22.4381 13.2874 22.4835 13.21 22.5125C13.1711 22.527 13.1307 22.5378 13.0898 22.5437L12.9668 22.5476C12.8844 22.5418 12.804 22.5187 12.7314 22.4792C12.661 22.4408 12.5997 22.3874 12.5508 22.324V22.325L10.2734 19.5134V19.5125C10.1803 19.4051 10.128 19.2683 10.1279 19.1257C10.1279 19.0718 10.1372 19.0186 10.1514 18.9675C10.1467 18.8233 10.1982 18.6789 10.3193 18.5623L13.7451 15.2273C12.8189 13.9854 11.6237 12.9662 10.2461 12.2488V12.2478C10.0677 12.1571 9.97692 12.0063 9.95703 11.8484C9.87583 11.7743 9.81671 11.678 9.78809 11.5701C9.74916 11.423 9.76996 11.2664 9.8457 11.1345L9.85059 11.1248L10.042 11.2468L9.85156 11.1248C10.3295 10.3783 10.9106 9.70407 11.5771 9.12183L11.8682 8.87769C11.9742 8.78159 12.1122 8.72729 12.2559 8.72729ZM12.3154 10.0046C12.0778 10.2101 11.8531 10.4304 11.6445 10.6658L11.6357 10.6765L11.6348 10.6755C11.5981 10.7122 11.5637 10.7511 11.5303 10.7908L11.4355 10.9138C11.4305 10.921 11.4248 10.9278 11.4189 10.9343L11.3037 11.0603L11.2383 11.1531L11.2334 11.1599C11.1773 11.2328 11.1214 11.3082 11.0664 11.3845C12.6401 12.2652 13.9886 13.5003 15.0039 14.9939H15.0049C15.1079 15.137 15.1303 15.2997 15.083 15.448C15.0432 15.5729 14.9574 15.6702 14.8604 15.739C14.848 15.7531 14.837 15.7688 14.8232 15.782L14.8223 15.781L11.4189 19.0945L13.0303 21.0974C14.2715 20.006 15.5992 19.0166 17.002 18.1414L17.0615 18.1072C17.188 18.044 17.3208 18.0385 17.4424 18.075C17.5535 18.0881 17.6612 18.1346 17.7539 18.2185H17.7549C18.8578 19.2029 19.8403 20.3129 20.6865 21.5232L22.5645 19.8582C21.6227 18.5953 20.637 17.3765 19.5957 16.2029C19.5488 16.193 19.5047 16.1703 19.4717 16.1326C19.336 15.9775 19.3025 15.7932 19.3379 15.6287C19.3144 15.4692 19.3585 15.2987 19.4893 15.156L19.4922 15.1531L19.9346 14.6921C20.9145 13.6863 21.9415 12.7275 23.0117 11.8181L21.1816 10.241C19.8429 11.2507 18.4233 12.149 16.9355 12.9236L16.9346 12.9226C16.7252 13.0415 16.5103 12.9929 16.3584 12.8865C16.3072 12.8648 16.2578 12.8372 16.2119 12.8005L16.208 12.7976C14.9812 11.7716 13.6795 10.839 12.3154 10.0046ZM16.8311 0.604248C16.9842 0.604298 17.131 0.6659 17.2393 0.77417L17.3115 0.862061C17.3743 0.956214 17.4082 1.0675 17.4082 1.18237C17.4082 1.29723 17.3743 1.40853 17.3115 1.50269L17.2393 1.59058C17.131 1.69886 16.9842 1.76045 16.8311 1.7605C16.7162 1.7605 16.6049 1.72559 16.5107 1.66284L16.4229 1.59058C16.3145 1.48227 16.2529 1.33562 16.2529 1.18237C16.2529 1.02912 16.3146 0.882464 16.4229 0.77417L16.5107 0.701904C16.6049 0.639168 16.7162 0.604248 16.8311 0.604248Z" fill="currentColor" stroke="currentColor" stroke-width="0.452541" stroke-linejoin="round"/>
</symbol>
</svg>
